<?xml version="1.0" encoding="iso-8859-1"?>
<!-- Generator: Adobe Illustrator 19.0.0, SVG Export Plug-In . SVG Version: 6.00 Build 0)  -->
<svg version="1.1" id="Calque_1" xmlns="http://www.w3.org/2000/svg" xmlns:xlink="http://www.w3.org/1999/xlink" x="0px" y="0px"
	 viewBox="0 0 265.079 344.038" style="enable-background:new 0 0 265.079 344.038;" xml:space="preserve">
<style type="text/css">
	.st0{fill-rule:evenodd;clip-rule:evenodd;fill:none;stroke:#3356AD;stroke-width:4;stroke-miterlimit:10;}
</style>
<path class="st0" d="M1.016,342.315c10.411-6.136,39.411-21.34,55.411-27.738c16-6.398,67.656-27.898,73.078-37.398
	c5.422-9.5,1.422-31.591-17.578-40.546c-19-8.954-31.611-15.454-45.555-8.954s-29.444,23.017-13.944,39.759s35.5-0.532,42-14.895
	c6.5-14.363,11-47.271-11-74.567s-45-25.276-56-24.536s-12.8-7.806-3.585-17.909S71.596,86.29,79.817,84.179
	c8.22-2.111,14.11-4.364,20.61,3.318s12.76,16.532,8.5,25.477c-4.26,8.945-12,20.705-20,16.705c-8-4-19.481-13.473-13-22
	c6.481-8.527,12-4.5,19,2.5s28.1,29.138,36.8,42.319c8.7,13.181,10.527,22.478,17.05,27.766s17.456,7.192,24.15-2.504
	c6.694-9.696,0.8-29.382-7.105-37.977c-7.905-8.595-24.41-28.119-33.403-37.612c-8.993-9.493-19.993-26.327-14.493-28.66
	c5.5-2.333,16.361-3.333,25.421,5.167c9.06,8.5,24.404,25,32.492,37.5c8.088,12.5,19.338,29.964,31.088,30.357
	s38.92-6.857,45.96-19.357c7.04-12.5,12.04-22.804,9.54-31.5s-17.5-26-29-27.5s-29-2.334-35,5.333s-15.292,19.308-11.357,30.738
	s9.357,18.947,21.857,18.688c12.5-0.259,24.095-1.109,34-10.759c9.905-9.65,3-18-9-17.5s-46.857,1.565-52.5-21.167
	s14.988-37.145,31-46.989S255.422,1.75,255.422,1.75"/>
</svg>
